<svg width="768" height="389" viewBox="0 0 768 389" preserveAspectRatio="none" fill="none" xmlns="http://www.w3.org/2000/svg">
    <path d="M127.734 1.00015C69.4552 3.00565 10.3783 22.5002 -0.00012207 25.5002V366.5C-0.00012207 366.5 55.0851 342.377 110.969 339.5C216.717 334.056 265.999 385.926 372.025 388.5C475.01 391 525.305 360 633.081 356.5C676.251 355.098 768 363 768 363L767.999 25C733.844 25.9416 725.864 34.9453 681.779 34.5C582.785 33.5 550.852 1 469.421 1C393.579 1 365.638 25.5002 295.385 25.5002C241.896 25.5002 200.382 -1.49985 127.734 1.00015Z" fill="#0BB7F6"/>
</svg>
