<svg width="479" height="369" viewBox="0 0 479 369" preserveAspectRatio="none" fill="none" xmlns="http://www.w3.org/2000/svg">
    <path d="M79.25 0.230535C42.8259 2.23703 6.98649 13.4048 0.5 16.4063V357.576C0.5 357.576 34.5728 346.609 69.5 343.731C135.593 338.284 169.734 365.655 236 368.23C300.366 370.732 327.64 354.232 395 350.73C421.981 349.328 480.5 354.074 480.5 354.074L480.5 15.9059C459.153 16.848 454.165 25.8562 426.612 25.4106C364.741 24.4101 346.144 0.23053 295.25 0.23053C247.849 0.23053 229.024 16.4063 185.115 16.4063C151.685 16.4063 124.655 -2.27071 79.25 0.230535Z" fill="#0BB7F6"/>
</svg>
