<svg width="1279" height="585" viewBox="0 0 1279 585" preserveAspectRatio="none" fill="none" xmlns="http://www.w3.org/2000/svg">
    <path d="M330.145 47.5C231.185 40 97.2971 12.5 0 47.5V559.5C69.9453 533.986 207.504 516.096 293.77 518.597C400.918 521.704 472.891 552.561 567.151 556C630.768 558.321 756.623 523.5 884.822 523.5C978.793 523.5 1103.53 576.911 1165.07 583C1226.61 589.089 1279 574.128 1279 574.128V12.5C1252.35 28.0087 1196.53 50.4982 1050.31 53.5C902.44 56.5358 852.933 -2.2316 691.059 0.269813C570.804 2.12811 453.081 56.8171 330.145 47.5Z" fill="#0BB7F6"/>
</svg>
