<svg width="1920" height="848" viewBox="0 0 1920 848" preserveAspectRatio="none" fill="none" xmlns="http://www.w3.org/2000/svg">
    <path d="M444.5 166.5C275.177 146.58 125 57.5001 0 0.324219V820C105 794.5 311.5 743 441 745.5C601.847 748.606 704 814.063 845.5 817.5C941 819.82 1142.74 776.517 1334.5 770C1437.5 766.5 1610.5 854 1734.5 847.5C1819.59 843.04 1866.5 828 1920 801V43C1880 58.5 1804 226 1584.5 229C1362.52 232.034 1141.5 65.0001 898.5 67.5001C717.976 69.3574 614.5 186.5 444.5 166.5Z" fill="#0BB7F6"/>
</svg>
