<svg width="70" height="70" viewBox="0 0 70 70" fill="none" xmlns="http://www.w3.org/2000/svg">
    <path d="M11.6667 58.3333C10.0625 58.3333 8.68973 57.7626 7.54834 56.6212C6.40695 55.4799 5.83529 54.1061 5.83334 52.5V17.5C5.83334 15.8958 6.40501 14.523 7.54834 13.3817C8.69168 12.2403 10.0645 11.6686 11.6667 11.6667H58.3333C59.9375 11.6667 61.3113 12.2383 62.4546 13.3817C63.5979 14.525 64.1686 15.8978 64.1667 17.5V52.5C64.1667 54.1042 63.596 55.4779 62.4546 56.6212C61.3132 57.7646 59.9395 58.3353 58.3333 58.3333H11.6667ZM35 37.9167L58.3333 23.3333V17.5L35 32.0833L11.6667 17.5V23.3333L35 37.9167Z" fill="white"/>
</svg>
