<svg width="70" height="70" viewBox="0 0 70 70" fill="none" xmlns="http://www.w3.org/2000/svg">
    <path fill-rule="evenodd" clip-rule="evenodd" d="M48.2767 64.5546C44.0767 64.4 32.1737 62.755 19.7079 50.2921C7.24499 37.8263 5.60291 25.9263 5.44541 21.7233C5.21207 15.3183 10.1179 9.09709 15.785 6.6675C16.4674 6.37282 17.2147 6.26063 17.9536 6.34193C18.6925 6.42323 19.3975 6.69524 19.9996 7.13125C24.6662 10.5321 27.8862 15.6771 30.6512 19.7225C31.2596 20.6113 31.5197 21.6929 31.382 22.7611C31.2443 23.8293 30.7184 24.8095 29.9046 25.515L24.2142 29.7413C23.9392 29.9398 23.7457 30.2313 23.6695 30.5618C23.5934 30.8922 23.6397 31.2391 23.8 31.5379C25.0892 33.88 27.3817 37.3683 30.0067 39.9933C32.6317 42.6183 36.2862 45.0625 38.7917 46.4975C39.1058 46.6738 39.4755 46.7231 39.8249 46.6353C40.1743 46.5474 40.4767 46.329 40.67 46.025L44.3742 40.3871C45.0552 39.4825 46.0598 38.8765 47.1776 38.696C48.2954 38.5154 49.4397 38.7745 50.3708 39.4188C54.4746 42.2596 59.2637 45.4242 62.7696 49.9129C63.241 50.5193 63.5409 51.2412 63.6378 52.0031C63.7348 52.765 63.6253 53.539 63.3208 54.2442C60.8796 59.9404 54.7021 64.7908 48.2767 64.5546Z" fill="white"/>
</svg>
