<svg width="667" height="549" viewBox="0 0 667 549" preserveAspectRatio="none" fill="none" xmlns="http://www.w3.org/2000/svg">
    <path d="M31 356.473C32.8141 296.711 2.67923e-05 215.973 0 166.473C-2.67923e-05 116.973 13.0053 37.8816 100 13.473C186.995 -10.9356 224.619 26.0798 317.471 21.2485C385.202 17.7243 381.5 6.08601 478.5 0.473074C575.5 -5.13987 667 39.4729 667 119.473C667 199.473 627.57 224.559 629.5 313.973C630.92 379.79 672.881 460.473 643.5 497.973C614.119 535.473 577 563 493.5 540.5C410 518 255.5 516.899 192.5 535.473C129.5 554.047 56.5 528.473 31 486.473C5.5 444.473 29.4121 408.784 31 356.473Z" fill="#0BB7F6"/>
</svg>
