<svg width="863" height="589" viewBox="0 0 863 589" preserveAspectRatio="none" fill="none" xmlns="http://www.w3.org/2000/svg">
    <path d="M58.5 378C60.3141 318.238 6.7671 287.423 0.500071 203.5C-5.76695 119.577 51.0055 44.9087 138 20.5001C224.995 -3.90849 300.148 50.8314 393 46.0001C460.731 42.4759 515 6.61306 612 1.00012C709 -4.61282 859.5 76.5 859.5 156.5C859.5 236.5 823.57 243.086 825.5 332.5C826.92 398.317 888.5 487.5 850.5 536C812.5 584.5 653 582.5 569.5 560C486 537.5 354.5 556.5 291.5 575.074C228.5 593.647 108.196 602 58.5 542.5C8.80398 483 56.9121 430.311 58.5 378Z" fill="#0BB7F6"/>
</svg>
