<svg width="1870" height="776" viewBox="-25 0 1920 776" preserveAspectRatio="none" fill="none" xmlns="http://www.w3.org/2000/svg">
    <path d="M442.5 297.5C401.037 295.857 364 353 364 373C364 393 392.786 412.984 417 449C441.214 485.016 445.487 532.229 477.5 509C509.513 485.77 498.667 451.167 477.5 417.5C456.333 383.833 483.962 299.142 442.5 297.5Z" fill="#0BB7F6"/>
    <path d="M789 253C770.568 239.896 790.47 226.039 806 212C821.53 197.961 830.529 183.366 845 195C859.471 206.633 853.29 221.027 845 239.5C836.71 257.972 807.432 266.103 789 253Z" fill="#0BB7F6"/>
    <path d="M562.5 0.999985C589.522 -0.342795 612.205 25.4986 608 43.9999C603.795 62.5013 575 70.7419 562.5 78C550 85.258 540.394 113.307 525.5 114C510.606 114.692 499.297 110.56 485 99.9587C470.703 89.3571 456.085 72.1765 469.5 54.4996C482.915 36.8227 512.561 68.0474 535.5 54.4996C558.439 40.9518 535.478 2.34277 562.5 0.999985Z" fill="#0BB7F6"/>
    <path d="M120.5 221.5C82.5 225 73 239 59 239C45 239 24.3483 222.596 18 192C12.9465 167.644 31.5 132.5 46 135C60.5 137.5 75.5 159 107 174.5C138.5 190 164.5 175.5 169.5 195C174.5 214.5 158.5 218 120.5 221.5Z" fill="#0BB7F6"/>
    <path d="M376 210C372.036 200.901 356.975 203.612 347 210C337.025 216.387 327.654 229.309 335.5 239.5C343.346 249.69 370.835 247.768 378 239.5C385.165 231.231 379.964 219.099 376 210Z" fill="#0BB7F6"/>
    <path d="M10.5 677C36.2778 684.727 49.9197 679.745 66.5 669C83.0803 658.254 89.4507 635.765 93.3407 607.5C97.2307 579.235 91.021 551.478 80.5 568C69.979 584.522 59.4954 592.107 36 613.895C12.5046 635.682 -15.2777 669.272 10.5 677Z" fill="#0BB7F6"/>
    <path d="M134.5 453.5C152 453.5 166 434.5 166 417.5C166 400.5 154 385 134.5 385C115 385 99 398 99 417.5C99 437 117 453.5 134.5 453.5Z" fill="#0BB7F6"/>
    <path d="M1223.68 539C1237.86 555.499 1263.89 601.724 1223.68 606.072C1183.46 610.42 1164.75 562.095 1133 575C1101.25 587.905 1072.62 659.745 1051 629C1029.38 598.255 1055.53 567.211 1074 542C1092.47 516.789 1090.5 478.499 1109.5 476C1128.5 473.5 1115.5 503.5 1147.5 519.5C1179.5 535.5 1209.5 522.5 1223.68 539Z" fill="#0BB7F6"/>
    <path d="M657.5 602.499C647.655 587.661 633.175 582.025 615 592.499C596.826 602.973 612.168 638.932 631.5 629C650.832 619.067 667.346 617.338 657.5 602.499Z" fill="#0BB7F6"/>
    <path d="M646.5 473C612.226 454.299 641.405 354.322 684 360.5C726.595 366.677 745.324 423.72 725.5 453.5C705.676 483.279 680.774 491.7 646.5 473Z" fill="#0BB7F6"/>
    <path d="M1037 164C1001.5 172 982.5 220.959 949 201.5C915.5 182.04 956.5 151.5 956.5 128.5C956.5 105.5 898.97 96.6676 908.5 65.5C918.03 34.3324 946 4.5 983.5 4.5C1021 4.5 1028.21 44.7768 1056.5 51.5C1084.79 58.2232 1129.4 28 1141 46.9996C1152.6 65.9992 1157.8 95 1129.4 134.5C1101 174 1072.5 156 1037 164Z" fill="#0BB7F6"/>
    <path d="M1447.5 220.5C1428.83 192.727 1441.96 164.957 1470 180C1498.04 195.043 1503.3 224.262 1487 248.5C1470.7 272.738 1466.17 248.273 1447.5 220.5Z" fill="#0BB7F6"/>
    <path d="M1181 297.5C1171.81 290.426 1169.83 284.074 1175.5 273C1181.17 261.926 1213.99 269.849 1212.5 284C1211.01 298.15 1190.19 304.573 1181 297.5Z" fill="#0BB7F6"/>
    <path d="M357 700.5C338.613 687.98 336.315 672.129 347 654.5C357.685 636.87 392.814 633.569 405.5 654.5C418.186 675.43 375.387 713.019 357 700.5Z" fill="#0BB7F6"/>
    <path d="M1660.5 350.5C1699 382.499 1707.33 382.436 1712.5 413C1717.67 443.563 1642.55 414.398 1617 425.5C1591.45 436.602 1618.11 487.222 1600 500.5C1581.89 513.777 1553.67 486.297 1539.5 452.999C1525.33 419.7 1565.59 416.688 1589.5 387.5C1613.41 358.312 1622 318.5 1660.5 350.5Z" fill="#0BB7F6"/>
    <path d="M1394.5 453.5C1378.26 465.311 1349.44 459.276 1342 436.5C1334.56 413.723 1389.71 387.996 1402.5 406.5C1415.29 425.003 1410.74 441.688 1394.5 453.5Z" fill="#0BB7F6"/>
    <path d="M1151 774.5C1132.83 779.328 1131.22 766.857 1133 743.5C1134.78 720.143 1173.89 718.911 1175.5 740C1177.11 761.088 1169.17 769.671 1151 774.5Z" fill="#0BB7F6"/>
    <path d="M740 703.5C721.992 678.64 733 657.5 752 654.5C771 651.5 781 705 814.5 708C848 711 905.5 668 917.5 690C929.5 712 924.889 726.701 900.5 734.5C876.111 742.298 861.672 750.242 831.5 747C801.328 743.758 758.008 728.36 740 703.5Z" fill="#0BB7F6"/>
    <path d="M1489 669C1467.39 655.202 1466.11 620.344 1476.5 591.5C1486.89 562.656 1512.78 527.878 1539.5 539C1566.22 550.121 1537.89 570.5 1535 606.072C1532.11 641.644 1547 641 1539.5 655.78C1532 670.56 1510.61 682.797 1489 669Z" fill="#0BB7F6"/>
    <path d="M1712.5 688.5C1701.44 664.373 1730.02 628.388 1753 629C1775.98 629.611 1783.49 636.475 1791 654.5C1798.51 672.524 1793.48 693.625 1774 706C1754.52 718.374 1723.56 712.627 1712.5 688.5Z" fill="#0BB7F6"/>
    <path d="M983.5 500.5C959 516.999 927.319 499.494 903.5 478C879.681 456.505 879.304 407.47 894.685 375C910.066 342.529 945.5 317.5 965 328.5C984.5 339.5 956.32 371.895 958.5 415.5C960.68 459.105 1008 484 983.5 500.5Z" fill="#0BB7F6"/>
    <path d="M667.5 201.5C678.19 222.73 646.621 246.982 631.5 227C616.379 207.018 600.406 187.57 619.5 180C638.594 172.43 656.81 180.269 667.5 201.5Z" fill="#0BB7F6"/>
    <path d="M1319.5 156C1293.47 141.126 1286.99 107.246 1308 83.9996C1329.01 60.7534 1353.44 90.663 1353 123.499C1352.56 156.335 1345.53 170.873 1319.5 156Z" fill="#0BB7F6"/>
    <path d="M238 78C213.54 80.7894 197.284 26.6921 216 15C234.716 3.30786 249.131 6.99263 261.5 23.5C273.869 40.0073 262.46 75.2105 238 78Z" fill="#0BB7F6"/>
    <path d="M258.5 580.5C247.865 580.451 237.268 557.216 247.5 549C257.732 540.784 278.651 557.745 275.5 568C272.349 578.254 269.135 580.549 258.5 580.5Z" fill="#0BB7F6"/>
    <path d="M1677 156C1661.04 170.3 1680 205.969 1639.5 194.999C1599 184.03 1625.5 158.999 1625.5 125.5C1625.5 92 1583 40.9992 1619.5 40.9992C1656 40.9992 1654.84 70.9747 1674 82.9996C1693.16 95.0245 1716.79 94.1048 1719.5 115.499C1722.21 136.894 1692.96 141.699 1677 156Z" fill="#0BB7F6"/>
</svg>
