<svg width="292" height="468" viewBox="0 0 292 468" preserveAspectRatio="none" fill="none" xmlns="http://www.w3.org/2000/svg">
    <path d="M20.6567 301.349C29.1567 215.849 12.1567 192.849 1.65671 130.849C-8.84326 68.8491 32.1566 -15.1509 79.6878 2.34901C127.219 19.849 182.157 9.34895 212.657 5.84898C243.157 2.34901 273.344 34.849 285.157 70.349C296.969 105.849 284.519 199.849 282.157 246.349C279.794 292.849 293.857 315.349 291.157 356.349C288.457 397.349 278.629 418.849 265.657 431.849C252.685 444.849 228.782 460.849 191.657 466.349C154.531 471.849 150.745 462.349 116.657 456.349C82.5687 450.349 61.1567 465.849 34.6567 441.849C8.15674 417.849 12.1567 386.849 20.6567 301.349Z" fill="#0BB7F6"/>
</svg>
