<svg width="442" height="557" viewBox="0 0 442 557" preserveAspectRatio="none" fill="none" xmlns="http://www.w3.org/2000/svg">
    <path d="M20.5 355C22.3141 295.238 7.26697 264.923 0.999941 181C-5.26708 97.0766 31.9999 -15.0459 111 9.5C190 34.0459 249.5 15.1219 307 2.5C364.5 -10.1219 402.5 40 420 75.5C437.5 111 417 205.5 413.5 252C410 298.5 445 403.5 441 444.5C437 485.5 417.5 510.5 383.5 533.5C349.5 556.5 306.5 528 251.5 533.5C196.5 539 190.5 562 140 556C89.5 550 50.9744 518 25.5 487.5C0.0255337 457 18.9121 407.311 20.5 355Z" fill="#0BB7F6"/>
</svg>
